<svg width="180" height="180" viewBox="0 0 180 180" fill="none" xmlns="http://www.w3.org/2000/svg">
  <rect width="180" height="180" rx="40" fill="#1A8FE3"/>
  <!-- Wind swirl mark - three flowing arcs -->
  <g>
    <!-- Top arc - white -->
    <path
      d="M45 68C45 68 62 45 90 45C114 45 126 60 126 72C126 84 114 90 102 90"
      stroke="white"
      stroke-width="10"
      stroke-linecap="round"
      fill="none"
    />
    <!-- Middle arc - teal -->
    <path
      d="M33 90C33 90 54 72 90 72C126 72 138 90 138 102C138 114 126 120 114 120"
      stroke="#22C997"
      stroke-width="10"
      stroke-linecap="round"
      fill="none"
      opacity="0.9"
    />
    <!-- Bottom arc - coral -->
    <path
      d="M45 112C45 112 62 95 90 95C108 95 120 107 120 119C120 131 108 137 96 137"
      stroke="#FF7849"
      stroke-width="10"
      stroke-linecap="round"
      fill="none"
      opacity="0.85"
    />
  </g>
  <!-- Accent dots -->
  <circle cx="126" cy="72" r="8" fill="#22C997" opacity="0.9"/>
  <circle cx="114" cy="120" r="7" fill="#FF7849" opacity="0.85"/>
</svg>
